<?xml version="1.0" encoding="iso-8859-1"?>
<!-- Generator: Adobe Illustrator 17.1.0, SVG Export Plug-In . SVG Version: 6.00 Build 0)  -->
<!DOCTYPE svg PUBLIC "-//W3C//DTD SVG 1.0//EN" "http://www.w3.org/TR/2001/REC-SVG-20010904/DTD/svg10.dtd">
<svg stroke="currentColor" fill="currentColor" stroke-width="0" viewBox="0 0 512 512" height="1em" width="1em" xmlns="http://www.w3.org/2000/svg">
	<path d="M432 176H80c-8.8 0-16-7.2-16-16s7.2-16 16-16h352c8.8 0 16 7.2 16 16s-7.2 16-16 16zM432 272H80c-8.8 0-16-7.2-16-16s7.2-16 16-16h352c8.8 0 16 7.2 16 16s-7.2 16-16 16zM432 368H80c-8.8 0-16-7.2-16-16s7.2-16 16-16h352c8.8 0 16 7.2 16 16s-7.2 16-16 16z"></path>
</svg>